<svg width="34" height="26" viewBox="0 0 34 26" fill="none" xmlns="http://www.w3.org/2000/svg">
<path d="M2.30665 25.0059H7.68882V12.1271L0 6.44531V22.7332C0 23.9908 1.03415 25.0059 2.30665 25.0059Z" fill="#4285F4"/>
<path d="M26.1424 25.0071H31.5245C32.801 25.0071 33.8312 23.9882 33.8312 22.7344V6.44653L26.1424 12.1283" fill="#34A853"/>
<path d="M26.1424 2.27917V12.1276L33.8312 6.44585V3.41555C33.8312 0.604932 30.575 -0.99734 28.2953 0.688265" fill="#FBBC04"/>
<path d="M7.68908 12.128V2.27954L16.9157 9.09771L26.1422 2.27954V12.128L16.9157 18.9462" fill="#EA4335"/>
<path d="M0 3.41555V6.44585L7.68882 12.1276V2.27917L5.53596 0.688265C3.25238 -0.99734 0 0.604932 0 3.41555Z" fill="#C5221F"/>
</svg>
