<svg width="934" height="711" viewBox="0 0 934 711" fill="none" xmlns="http://www.w3.org/2000/svg">
<circle cx="461" cy="344" r="293" fill="#BFF7EC"/>
<path d="M713 262C676.5 170.5 599.5 80 462.5 80C325.5 80 240 175.5 207 266" stroke="#183669" stroke-width="10" stroke-linecap="round"/>
<path d="M81 299L366 299" stroke="#183669" stroke-width="10" stroke-linecap="round"/>
<path d="M71 468L849 466.99" stroke="#183669" stroke-width="10" stroke-linecap="round"/>
<line x1="555" y1="299" x2="841" y2="299" stroke="#183669" stroke-width="10" stroke-linecap="round"/>
<rect x="224" y="442" width="471" height="51" rx="25.5" fill="#183669"/>
<path d="M224.888 409V354.472H203.384V341.8H261.944V354.472H240.44V409H224.888ZM270.312 409V341.8H299.4C305.416 341.8 310.6 342.792 314.952 344.776C319.304 346.696 322.664 349.48 325.032 353.128C327.4 356.776 328.584 361.128 328.584 366.184C328.584 371.176 327.4 375.496 325.032 379.144C322.664 382.728 319.304 385.48 314.952 387.4C310.6 389.32 305.416 390.28 299.4 390.28H278.952L285.864 383.464V409H270.312ZM313.032 409L296.232 384.616H312.84L329.832 409H313.032ZM285.864 385.192L278.952 377.896H298.536C303.336 377.896 306.92 376.872 309.288 374.824C311.656 372.712 312.84 369.832 312.84 366.184C312.84 362.472 311.656 359.592 309.288 357.544C306.92 355.496 303.336 354.472 298.536 354.472H278.952L285.864 347.08V385.192ZM370.762 410.152C361.226 410.152 353.77 407.496 348.394 402.184C343.018 396.872 340.33 389.288 340.33 379.432V341.8H355.882V378.856C355.882 385.256 357.194 389.864 359.818 392.68C362.442 395.496 366.122 396.904 370.858 396.904C375.594 396.904 379.274 395.496 381.898 392.68C384.522 389.864 385.833 385.256 385.833 378.856V341.8H401.194V379.432C401.194 389.288 398.506 396.872 393.13 402.184C387.754 407.496 380.298 410.152 370.762 410.152ZM430.962 372.04H463.218V384.52H430.962V372.04ZM432.114 409H416.562V341.8H467.346V354.28H432.114V409ZM492.274 372.04H524.53V384.52H492.274V372.04ZM493.426 409H477.874V341.8H528.658V354.28H493.426V409ZM539.187 409V341.8H554.739V396.328H588.435V409H539.187ZM611.428 368.872H643.78V380.968H611.428V368.872ZM612.58 396.52H649.156V409H597.124V341.8H647.908V354.28H612.58V396.52ZM683.611 410.152C678.235 410.152 673.083 409.448 668.155 408.04C663.227 406.568 659.259 404.68 656.251 402.376L661.531 390.664C664.411 392.712 667.803 394.408 671.707 395.752C675.675 397.032 679.675 397.672 683.707 397.672C686.779 397.672 689.243 397.384 691.099 396.808C693.019 396.168 694.427 395.304 695.323 394.216C696.219 393.128 696.667 391.88 696.667 390.472C696.667 388.68 695.963 387.272 694.555 386.248C693.147 385.16 691.291 384.296 688.987 383.656C686.683 382.952 684.123 382.312 681.307 381.736C678.555 381.096 675.771 380.328 672.955 379.432C670.203 378.536 667.675 377.384 665.371 375.976C663.067 374.568 661.179 372.712 659.707 370.408C658.299 368.104 657.595 365.16 657.595 361.576C657.595 357.736 658.619 354.248 660.667 351.112C662.779 347.912 665.915 345.384 670.075 343.528C674.299 341.608 679.579 340.648 685.915 340.648C690.139 340.648 694.299 341.16 698.395 342.184C702.491 343.144 706.107 344.616 709.243 346.6L704.443 358.408C701.307 356.616 698.171 355.304 695.035 354.472C691.899 353.576 688.827 353.128 685.819 353.128C682.811 353.128 680.347 353.48 678.427 354.184C676.507 354.888 675.131 355.816 674.299 356.968C673.467 358.056 673.051 359.336 673.051 360.808C673.051 362.536 673.755 363.944 675.163 365.032C676.571 366.056 678.427 366.888 680.731 367.528C683.035 368.168 685.563 368.808 688.315 369.448C691.131 370.088 693.915 370.824 696.667 371.656C699.483 372.488 702.043 373.608 704.347 375.016C706.651 376.424 708.507 378.28 709.915 380.584C711.387 382.888 712.123 385.8 712.123 389.32C712.123 393.096 711.067 396.552 708.955 399.688C706.843 402.824 703.675 405.352 699.451 407.272C695.291 409.192 690.011 410.152 683.611 410.152Z" fill="#183669"/>
<path d="M243.34 459.8H246.14L251.36 474H248.52L247.2 470.46H242.24L240.94 474H238.1L243.34 459.8ZM246.7 468.52L244.74 462.66L242.7 468.52H246.7ZM256.237 466.8C256.237 465.933 256.391 465.087 256.697 464.26C257.017 463.42 257.477 462.66 258.077 461.98C258.677 461.287 259.411 460.74 260.277 460.34C261.144 459.927 262.131 459.72 263.237 459.72C264.544 459.72 265.671 460.007 266.617 460.58C267.577 461.153 268.291 461.9 268.757 462.82L266.637 464.28C266.397 463.747 266.084 463.327 265.697 463.02C265.311 462.7 264.897 462.48 264.457 462.36C264.017 462.227 263.584 462.16 263.157 462.16C262.464 462.16 261.857 462.3 261.337 462.58C260.831 462.86 260.404 463.227 260.057 463.68C259.711 464.133 259.451 464.64 259.277 465.2C259.117 465.76 259.037 466.32 259.037 466.88C259.037 467.507 259.137 468.113 259.337 468.7C259.537 469.273 259.817 469.787 260.177 470.24C260.551 470.68 260.991 471.033 261.497 471.3C262.017 471.553 262.584 471.68 263.197 471.68C263.637 471.68 264.084 471.607 264.537 471.46C264.991 471.313 265.411 471.08 265.797 470.76C266.184 470.44 266.484 470.027 266.697 469.52L268.957 470.82C268.677 471.527 268.217 472.127 267.577 472.62C266.951 473.113 266.244 473.487 265.457 473.74C264.671 473.993 263.891 474.12 263.117 474.12C262.104 474.12 261.177 473.913 260.337 473.5C259.497 473.073 258.771 472.513 258.157 471.82C257.557 471.113 257.084 470.327 256.737 469.46C256.404 468.58 256.237 467.693 256.237 466.8ZM274.753 466.8C274.753 465.933 274.906 465.087 275.213 464.26C275.533 463.42 275.993 462.66 276.593 461.98C277.193 461.287 277.926 460.74 278.793 460.34C279.659 459.927 280.646 459.72 281.753 459.72C283.059 459.72 284.186 460.007 285.133 460.58C286.093 461.153 286.806 461.9 287.273 462.82L285.153 464.28C284.913 463.747 284.599 463.327 284.213 463.02C283.826 462.7 283.413 462.48 282.973 462.36C282.533 462.227 282.099 462.16 281.673 462.16C280.979 462.16 280.373 462.3 279.853 462.58C279.346 462.86 278.919 463.227 278.573 463.68C278.226 464.133 277.966 464.64 277.793 465.2C277.633 465.76 277.553 466.32 277.553 466.88C277.553 467.507 277.653 468.113 277.853 468.7C278.053 469.273 278.333 469.787 278.693 470.24C279.066 470.68 279.506 471.033 280.013 471.3C280.533 471.553 281.099 471.68 281.713 471.68C282.153 471.68 282.599 471.607 283.053 471.46C283.506 471.313 283.926 471.08 284.313 470.76C284.699 470.44 284.999 470.027 285.213 469.52L287.473 470.82C287.193 471.527 286.733 472.127 286.093 472.62C285.466 473.113 284.759 473.487 283.973 473.74C283.186 473.993 282.406 474.12 281.633 474.12C280.619 474.12 279.693 473.913 278.853 473.5C278.013 473.073 277.286 472.513 276.673 471.82C276.073 471.113 275.599 470.327 275.253 469.46C274.919 468.58 274.753 467.693 274.753 466.8ZM300.188 474.1C299.148 474.1 298.202 473.9 297.348 473.5C296.508 473.1 295.782 472.56 295.168 471.88C294.568 471.187 294.102 470.413 293.768 469.56C293.435 468.693 293.268 467.807 293.268 466.9C293.268 465.953 293.442 465.053 293.788 464.2C294.148 463.333 294.635 462.567 295.248 461.9C295.875 461.22 296.608 460.687 297.448 460.3C298.302 459.9 299.235 459.7 300.248 459.7C301.275 459.7 302.208 459.907 303.048 460.32C303.902 460.733 304.628 461.287 305.228 461.98C305.828 462.673 306.295 463.447 306.628 464.3C306.962 465.153 307.128 466.033 307.128 466.94C307.128 467.873 306.955 468.773 306.608 469.64C306.262 470.493 305.775 471.26 305.148 471.94C304.535 472.607 303.802 473.133 302.948 473.52C302.108 473.907 301.188 474.1 300.188 474.1ZM296.068 466.9C296.068 467.513 296.162 468.107 296.348 468.68C296.535 469.253 296.802 469.767 297.148 470.22C297.508 470.66 297.942 471.013 298.448 471.28C298.968 471.533 299.555 471.66 300.208 471.66C300.875 471.66 301.468 471.527 301.988 471.26C302.508 470.98 302.942 470.613 303.288 470.16C303.635 469.693 303.895 469.18 304.068 468.62C304.255 468.047 304.348 467.473 304.348 466.9C304.348 466.287 304.248 465.7 304.048 465.14C303.862 464.567 303.588 464.06 303.228 463.62C302.882 463.167 302.448 462.813 301.928 462.56C301.422 462.293 300.848 462.16 300.208 462.16C299.528 462.16 298.928 462.3 298.408 462.58C297.902 462.847 297.475 463.207 297.128 463.66C296.782 464.113 296.515 464.62 296.328 465.18C296.155 465.74 296.068 466.313 296.068 466.9ZM325.63 474V464.68L321.99 471.62H320.45L316.81 464.68V474H314.05V459.8H317.01L321.21 467.88L325.45 459.8H328.39V474H325.63ZM347.74 474V464.68L344.1 471.62H342.56L338.92 464.68V474H336.16V459.8H339.12L343.32 467.88L347.56 459.8H350.5V474H347.74ZM364.329 474.1C363.289 474.1 362.342 473.9 361.489 473.5C360.649 473.1 359.922 472.56 359.309 471.88C358.709 471.187 358.242 470.413 357.909 469.56C357.576 468.693 357.409 467.807 357.409 466.9C357.409 465.953 357.582 465.053 357.929 464.2C358.289 463.333 358.776 462.567 359.389 461.9C360.016 461.22 360.749 460.687 361.589 460.3C362.442 459.9 363.376 459.7 364.389 459.7C365.416 459.7 366.349 459.907 367.189 460.32C368.042 460.733 368.769 461.287 369.369 461.98C369.969 462.673 370.436 463.447 370.769 464.3C371.102 465.153 371.269 466.033 371.269 466.94C371.269 467.873 371.096 468.773 370.749 469.64C370.402 470.493 369.916 471.26 369.289 471.94C368.676 472.607 367.942 473.133 367.089 473.52C366.249 473.907 365.329 474.1 364.329 474.1ZM360.209 466.9C360.209 467.513 360.302 468.107 360.489 468.68C360.676 469.253 360.942 469.767 361.289 470.22C361.649 470.66 362.082 471.013 362.589 471.28C363.109 471.533 363.696 471.66 364.349 471.66C365.016 471.66 365.609 471.527 366.129 471.26C366.649 470.98 367.082 470.613 367.429 470.16C367.776 469.693 368.036 469.18 368.209 468.62C368.396 468.047 368.489 467.473 368.489 466.9C368.489 466.287 368.389 465.7 368.189 465.14C368.002 464.567 367.729 464.06 367.369 463.62C367.022 463.167 366.589 462.813 366.069 462.56C365.562 462.293 364.989 462.16 364.349 462.16C363.669 462.16 363.069 462.3 362.549 462.58C362.042 462.847 361.616 463.207 361.269 463.66C360.922 464.113 360.656 464.62 360.469 465.18C360.296 465.74 360.209 466.313 360.209 466.9ZM378.191 474V459.8H383.351C384.898 459.8 386.191 460.12 387.231 460.76C388.271 461.387 389.051 462.24 389.571 463.32C390.091 464.387 390.351 465.573 390.351 466.88C390.351 468.32 390.064 469.573 389.491 470.64C388.918 471.707 388.104 472.533 387.051 473.12C386.011 473.707 384.778 474 383.351 474H378.191ZM387.571 466.88C387.571 465.96 387.404 465.153 387.071 464.46C386.738 463.753 386.258 463.207 385.631 462.82C385.004 462.42 384.244 462.22 383.351 462.22H380.951V471.58H383.351C384.258 471.58 385.024 471.38 385.651 470.98C386.278 470.567 386.751 470.007 387.071 469.3C387.404 468.58 387.571 467.773 387.571 466.88ZM400.547 459.8H403.347L408.567 474H405.727L404.407 470.46H399.447L398.147 474H395.307L400.547 459.8ZM403.907 468.52L401.947 462.66L399.907 468.52H403.907ZM424.338 462.22H419.798V474H417.058V462.22H412.518V459.8H424.338V462.22ZM430.32 474V459.8H433.08V474H430.32ZM446.907 474.1C445.867 474.1 444.921 473.9 444.067 473.5C443.227 473.1 442.501 472.56 441.887 471.88C441.287 471.187 440.821 470.413 440.487 469.56C440.154 468.693 439.987 467.807 439.987 466.9C439.987 465.953 440.161 465.053 440.507 464.2C440.867 463.333 441.354 462.567 441.967 461.9C442.594 461.22 443.327 460.687 444.167 460.3C445.021 459.9 445.954 459.7 446.967 459.7C447.994 459.7 448.927 459.907 449.767 460.32C450.621 460.733 451.347 461.287 451.947 461.98C452.547 462.673 453.014 463.447 453.347 464.3C453.681 465.153 453.847 466.033 453.847 466.94C453.847 467.873 453.674 468.773 453.327 469.64C452.981 470.493 452.494 471.26 451.867 471.94C451.254 472.607 450.521 473.133 449.667 473.52C448.827 473.907 447.907 474.1 446.907 474.1ZM442.787 466.9C442.787 467.513 442.881 468.107 443.067 468.68C443.254 469.253 443.521 469.767 443.867 470.22C444.227 470.66 444.661 471.013 445.167 471.28C445.687 471.533 446.274 471.66 446.927 471.66C447.594 471.66 448.187 471.527 448.707 471.26C449.227 470.98 449.661 470.613 450.007 470.16C450.354 469.693 450.614 469.18 450.787 468.62C450.974 468.047 451.067 467.473 451.067 466.9C451.067 466.287 450.967 465.7 450.767 465.14C450.581 464.567 450.307 464.06 449.947 463.62C449.601 463.167 449.167 462.813 448.647 462.56C448.141 462.293 447.567 462.16 446.927 462.16C446.247 462.16 445.647 462.3 445.127 462.58C444.621 462.847 444.194 463.207 443.847 463.66C443.501 464.113 443.234 464.62 443.047 465.18C442.874 465.74 442.787 466.313 442.787 466.9ZM463.529 464.88V474H460.769V459.8H462.969L470.309 469.16V459.82H473.069V474H470.769L463.529 464.88ZM488.867 459.8H491.667L496.887 474H494.047L492.727 470.46H487.767L486.467 474H483.627L488.867 459.8ZM492.227 468.52L490.267 462.66L488.227 468.52H492.227ZM505.385 464.88V474H502.625V459.8H504.825L512.165 469.16V459.82H514.925V474H512.625L505.385 464.88ZM522.683 474V459.8H527.843C529.39 459.8 530.683 460.12 531.723 460.76C532.763 461.387 533.543 462.24 534.063 463.32C534.583 464.387 534.843 465.573 534.843 466.88C534.843 468.32 534.556 469.573 533.983 470.64C533.41 471.707 532.596 472.533 531.543 473.12C530.503 473.707 529.27 474 527.843 474H522.683ZM532.063 466.88C532.063 465.96 531.896 465.153 531.563 464.46C531.23 463.753 530.75 463.207 530.123 462.82C529.496 462.42 528.736 462.22 527.843 462.22H525.443V471.58H527.843C528.75 471.58 529.516 471.38 530.143 470.98C530.77 470.567 531.243 470.007 531.563 469.3C531.896 468.58 532.063 467.773 532.063 466.88ZM545.749 466.8C545.749 465.933 545.902 465.087 546.209 464.26C546.529 463.42 546.989 462.66 547.589 461.98C548.189 461.287 548.922 460.74 549.789 460.34C550.656 459.927 551.642 459.72 552.749 459.72C554.056 459.72 555.182 460.007 556.129 460.58C557.089 461.153 557.802 461.9 558.269 462.82L556.149 464.28C555.909 463.747 555.596 463.327 555.209 463.02C554.822 462.7 554.409 462.48 553.969 462.36C553.529 462.227 553.096 462.16 552.669 462.16C551.976 462.16 551.369 462.3 550.849 462.58C550.342 462.86 549.916 463.227 549.569 463.68C549.222 464.133 548.962 464.64 548.789 465.2C548.629 465.76 548.549 466.32 548.549 466.88C548.549 467.507 548.649 468.113 548.849 468.7C549.049 469.273 549.329 469.787 549.689 470.24C550.062 470.68 550.502 471.033 551.009 471.3C551.529 471.553 552.096 471.68 552.709 471.68C553.149 471.68 553.596 471.607 554.049 471.46C554.502 471.313 554.922 471.08 555.309 470.76C555.696 470.44 555.996 470.027 556.209 469.52L558.469 470.82C558.189 471.527 557.729 472.127 557.089 472.62C556.462 473.113 555.756 473.487 554.969 473.74C554.182 473.993 553.402 474.12 552.629 474.12C551.616 474.12 550.689 473.913 549.849 473.5C549.009 473.073 548.282 472.513 547.669 471.82C547.069 471.113 546.596 470.327 546.249 469.46C545.916 468.58 545.749 467.693 545.749 466.8ZM568.36 459.8H571.16L576.38 474H573.54L572.22 470.46H567.26L565.96 474H563.12L568.36 459.8ZM571.72 468.52L569.76 462.66L567.72 468.52H571.72ZM592.151 462.22H587.611V474H584.871V462.22H580.331V459.8H592.151V462.22ZM607.992 471.58V474H598.132V459.8H607.812V462.22H600.892V465.64H606.872V467.88H600.892V471.58H607.992ZM614.949 474V459.8H621.229C621.882 459.8 622.482 459.933 623.029 460.2C623.589 460.467 624.069 460.827 624.469 461.28C624.882 461.733 625.195 462.24 625.409 462.8C625.635 463.36 625.749 463.933 625.749 464.52C625.749 465.12 625.642 465.7 625.429 466.26C625.229 466.807 624.935 467.287 624.549 467.7C624.162 468.113 623.709 468.433 623.189 468.66L626.429 474H623.389L620.469 469.24H617.709V474H614.949ZM617.709 466.82H621.169C621.515 466.82 621.822 466.72 622.089 466.52C622.355 466.307 622.569 466.027 622.729 465.68C622.889 465.333 622.969 464.947 622.969 464.52C622.969 464.067 622.875 463.673 622.689 463.34C622.502 462.993 622.262 462.72 621.969 462.52C621.689 462.32 621.382 462.22 621.049 462.22H617.709V466.82ZM642.914 471.58V474H633.054V459.8H642.734V462.22H635.814V465.64H641.794V467.88H635.814V471.58H642.914ZM649.871 474V459.8H656.151C656.804 459.8 657.404 459.933 657.951 460.2C658.511 460.467 658.991 460.827 659.391 461.28C659.804 461.733 660.117 462.24 660.331 462.8C660.557 463.36 660.671 463.933 660.671 464.52C660.671 465.12 660.564 465.7 660.351 466.26C660.151 466.807 659.857 467.287 659.471 467.7C659.084 468.113 658.631 468.433 658.111 468.66L661.351 474H658.311L655.391 469.24H652.631V474H649.871ZM652.631 466.82H656.091C656.437 466.82 656.744 466.72 657.011 466.52C657.277 466.307 657.491 466.027 657.651 465.68C657.811 465.333 657.891 464.947 657.891 464.52C657.891 464.067 657.797 463.673 657.611 463.34C657.424 462.993 657.184 462.72 656.891 462.52C656.611 462.32 656.304 462.22 655.971 462.22H652.631V466.82ZM676.436 463.52C676.343 463.427 676.169 463.3 675.916 463.14C675.676 462.98 675.376 462.827 675.016 462.68C674.669 462.533 674.289 462.407 673.876 462.3C673.463 462.18 673.043 462.12 672.616 462.12C671.869 462.12 671.303 462.26 670.916 462.54C670.543 462.82 670.356 463.213 670.356 463.72C670.356 464.107 670.476 464.413 670.716 464.64C670.956 464.867 671.316 465.06 671.796 465.22C672.276 465.38 672.876 465.553 673.596 465.74C674.529 465.967 675.336 466.247 676.016 466.58C676.709 466.9 677.236 467.327 677.596 467.86C677.969 468.38 678.156 469.073 678.156 469.94C678.156 470.7 678.016 471.353 677.736 471.9C677.456 472.433 677.069 472.867 676.576 473.2C676.083 473.533 675.523 473.78 674.896 473.94C674.269 474.087 673.603 474.16 672.896 474.16C672.189 474.16 671.483 474.087 670.776 473.94C670.069 473.793 669.389 473.587 668.736 473.32C668.083 473.04 667.483 472.707 666.936 472.32L668.156 469.94C668.276 470.06 668.489 470.22 668.796 470.42C669.103 470.607 669.476 470.8 669.916 471C670.356 471.187 670.836 471.347 671.356 471.48C671.876 471.613 672.403 471.68 672.936 471.68C673.683 471.68 674.249 471.553 674.636 471.3C675.023 471.047 675.216 470.687 675.216 470.22C675.216 469.793 675.063 469.46 674.756 469.22C674.449 468.98 674.023 468.773 673.476 468.6C672.929 468.413 672.283 468.213 671.536 468C670.643 467.747 669.896 467.467 669.296 467.16C668.696 466.84 668.249 466.44 667.956 465.96C667.663 465.48 667.516 464.88 667.516 464.16C667.516 463.187 667.743 462.373 668.196 461.72C668.663 461.053 669.289 460.553 670.076 460.22C670.863 459.873 671.736 459.7 672.696 459.7C673.363 459.7 673.989 459.773 674.576 459.92C675.176 460.067 675.736 460.26 676.256 460.5C676.776 460.74 677.243 461 677.656 461.28L676.436 463.52Z" fill="white"/>
<path d="M110 267H173.201C176.823 267 178.634 267 181.446 265.805C184.257 264.61 184.92 263.922 186.247 262.546C189.768 258.894 193.211 253.017 191 245C187.863 233.627 179.496 231.174 176.033 230.645C175.509 230.565 175.247 230.525 174.515 230.486C173.782 230.446 173.509 230.458 172.962 230.482C168.966 230.658 158.365 232.602 155.5 248" stroke="#183669" stroke-width="10" stroke-linecap="round"/>
<path d="M812 266.533H748.671C745.104 266.533 743.32 266.533 740.569 265.396C737.818 264.259 737.141 263.585 735.788 262.237C732.135 258.597 728.47 252.666 730.721 244.533C733.873 233.148 742.282 230.702 745.75 230.176C746.276 230.097 746.538 230.057 747.264 230.018C747.989 229.979 748.263 229.991 748.811 230.015C752.813 230.187 763.466 232.121 766.343 247.533" stroke="#183669" stroke-width="10" stroke-linecap="round"/>
<path d="M807.122 501H709.81C706.066 501 702.312 501.775 699.289 503.985C694.844 507.235 689.086 512.988 690.122 520.5C691.685 531.832 702.801 534.25 704.015 534.481C704.09 534.495 704.149 534.505 704.225 534.516C705.681 534.73 722.227 536.75 725.622 518.5" stroke="#183669" stroke-width="10" stroke-linecap="round"/>
<path d="M110 500H210.841C214.509 500 218.18 500.744 221.18 502.855C225.8 506.104 231.961 511.977 230.874 519.682C229.256 531.142 217.731 533.57 216.514 533.795C216.44 533.808 216.385 533.817 216.31 533.828C214.845 534.04 197.711 536.108 194.198 517.664" stroke="#183669" stroke-width="10" stroke-linecap="round"/>
<path d="M514.5 169L498 185L483 200C476 207.5 477.5 218.5 482.5 223.5C487 228 495.923 233.683 507.5 225C509.5 223.5 526 207.5 538.5 194" stroke="#183669" stroke-width="6" stroke-linecap="round"/>
<path d="M485 223L526.5 181.5" stroke="#183669" stroke-width="6" stroke-linecap="round"/>
<path d="M479.5 221.5L408 295.5L413.5 302L486 229" stroke="#183669" stroke-width="6" stroke-linecap="square"/>
<path d="M514 291.5L507 299L472.852 265L479 258L514 291.5Z" fill="#BFF7EC"/>
<path d="M391.5 184L472.852 265M472.852 265L507 299L514 291.5L479 258L472.852 265Z" stroke="#183669" stroke-width="6" stroke-linecap="round"/>
<path d="M421.5 186.5C415.5 181.7 399 182.5 391.5 183.5L473 265L479 258C485 251 479 241 477 239C474.764 236.764 429 192.5 421.5 186.5Z" fill="#BFF7EC" stroke="#183669" stroke-width="6" stroke-linecap="round" stroke-linejoin="round"/>
<path d="M253 505.5C280.667 542.667 362.8 615.2 470 608C577.2 600.8 648 536.667 670 505.5" stroke="#183669" stroke-width="10" stroke-linecap="round"/>
</svg>
